<svg xmlns="http://www.w3.org/2000/svg" width="24" height="24" viewBox="0 0 24 24">
	<path fill="#e2e2e2" fill-rule="evenodd" d="M0 8.4c0-2.24 0-3.36.436-4.22a4.03 4.03 0 0 1 1.75-1.75c.856-.436 1.98-.436 4.22-.436h11.2c2.24 0 3.36 0 4.22.436c.753.384 1.36.995 1.75 1.75c.436.856.436 1.98.436 4.22v7.2c0 2.24 0 3.36-.436 4.22a4.03 4.03 0 0 1-1.75 1.75c-.856.436-1.98.436-4.22.436h-11.2c-2.24 0-3.36 0-4.22-.436a4.03 4.03 0 0 1-1.75-1.75C0 18.964 0 17.84 0 15.6zm23 7.2V9h-4v4.5c0 1.18 0 1.77-.366 2.13c-.31.31-.781.358-1.63.365v5h.6c1.14 0 1.93 0 2.55-.051c.605-.05.953-.142 1.22-.276a3 3 0 0 0 1.31-1.31c.134-.263.226-.611.276-1.22c.05-.617.051-1.41.051-2.55zm-9-2.1V9h-4v4.5c0 1.18 0 1.77-.366 2.13c-.31.31-.781.358-1.63.365v5h8v-5c-.853-.007-1.32-.055-1.63-.365c-.366-.366-.366-.955-.366-2.13zM5 9H1v6.6c0 1.14 0 1.93.051 2.55c.05.605.142.953.276 1.22a3.02 3.02 0 0 0 1.31 1.31c.263.134.611.226 1.22.276c.617.05 1.41.051 2.55.051h.6v-5c-.853-.007-1.32-.054-1.63-.365c-.366-.366-.366-.955-.366-2.13v-4.5zm0-2a2 2 0 1 0 .001-4.001A2 2 0 0 0 5 7m8-2c0 1.1-.895 2-2 2a2 2 0 1 1 2-2m2.14-1.32c-.136.267-.136.617-.136 1.32s0 1.05.136 1.32c.12.235.311.426.546.546c.267.136.617.136 1.32.136h2c.7 0 1.05 0 1.32-.136c.235-.12.426-.311.546-.546c.136-.267.136-.617.136-1.32s0-1.05-.136-1.32a1.25 1.25 0 0 0-.546-.546c-.267-.136-.617-.136-1.32-.136h-2c-.7 0-1.05 0-1.32.136c-.235.12-.426.311-.546.546" clip-rule="evenodd" />
</svg>