<svg id="eAvKaCQNDnu1" xmlns="http://www.w3.org/2000/svg" xmlns:xlink="http://www.w3.org/1999/xlink" viewBox="0 0 26 28" shape-rendering="geometricPrecision" text-rendering="geometricPrecision" project-id="61e23e3b7a8a449a8969620d35cff6f3" export-id="03f64ee9b317444f9d5d14deb219d67e" cached="false">
  <style>
    <![CDATA[
    #eAvKaCQNDnu4_to {
      animation: eAvKaCQNDnu4_to__to 3000ms linear infinite normal forwards
    }

    @keyframes eAvKaCQNDnu4_to__to {
      0% {
        transform: translate(3.495715px, 7.631594px)
      }

      36.666667% {
        transform: translate(3.495715px, 3.761184px)
      }

      60% {
        transform: translate(4.390956px, 5.572769px)
      }

      76.666667% {
        transform: translate(3.495715px, 5.910846px)
      }

      100% {
        transform: translate(3.495715px, 7.484331px)
      }
    }

    #eAvKaCQNDnu4_tr {
      animation: eAvKaCQNDnu4_tr__tr 3000ms linear infinite normal forwards
    }

    @keyframes eAvKaCQNDnu4_tr__tr {
      0% {
        transform: rotate(128.333335deg)
      }

      100% {
        transform: rotate(488.333335deg)
      }
    }

    #eAvKaCQNDnu5_to {
      animation: eAvKaCQNDnu5_to__to 3000ms linear infinite normal forwards
    }

    @keyframes eAvKaCQNDnu5_to__to {
      0% {
        transform: translate(9.164248px, 5.114281px)
      }

      20% {
        transform: translate(9.971123px, 2.58919px)
      }

      33.333333% {
        transform: translate(9.012027px, 2.215492px)
      }

      53.333333% {
        transform: translate(8.502546px, 4.179518px)
      }

      76.666667% {
        transform: translate(10.942476px, 4.587943px)
      }

      100% {
        transform: translate(9.216106px, 5.193492px)
      }
    }

    #eAvKaCQNDnu5_tr {
      animation: eAvKaCQNDnu5_tr__tr 3000ms linear infinite normal forwards
    }

    @keyframes eAvKaCQNDnu5_tr__tr {
      0% {
        transform: rotate(445.030286deg)
      }

      100% {
        transform: rotate(85.030286deg)
      }
    }

    #eAvKaCQNDnu6_to {
      animation: eAvKaCQNDnu6_to__to 3000ms linear infinite normal forwards
    }

    @keyframes eAvKaCQNDnu6_to__to {
      0% {
        transform: translate(16.573655px, 2.882403px)
      }

      33.333333% {
        transform: translate(16.209104px, 4.521781px)
      }

      56.666667% {
        transform: translate(15.776182px, 3.565733px)
      }

      100% {
        transform: translate(16.767802px, 3.003034px)
      }
    }

    #eAvKaCQNDnu6_tr {
      animation: eAvKaCQNDnu6_tr__tr 3000ms linear infinite normal forwards
    }

    @keyframes eAvKaCQNDnu6_tr__tr {
      0% {
        transform: rotate(81.131948deg)
      }

      100% {
        transform: rotate(441.131948deg)
      }
    }

    #eAvKaCQNDnu7_to {
      animation: eAvKaCQNDnu7_to__to 3000ms linear infinite normal forwards
    }

    @keyframes eAvKaCQNDnu7_to__to {
      0% {
        transform: translate(22.337011px, 7.041937px);
        animation-timing-function: cubic-bezier(0.25, 1, 0.275, 0.785)
      }

      23.333333% {
        transform: translate(23.246787px, 5.658418px);
        animation-timing-function: cubic-bezier(0.25, 1, 0.25, 1)
      }

      46.666667% {
        transform: translate(22.531158px, 7.854304px);
        animation-timing-function: cubic-bezier(0.25, 1, 0.25, 1)
      }

      73.333333% {
        transform: translate(22.791552px, 6.186608px);
        animation-timing-function: cubic-bezier(0.25, 1, 0.25, 1)
      }

      100% {
        transform: translate(22.531158px, 7.760093px)
      }
    }

    #eAvKaCQNDnu7_tr {
      animation: eAvKaCQNDnu7_tr__tr 3000ms linear infinite normal forwards
    }

    @keyframes eAvKaCQNDnu7_tr__tr {
      0% {
        transform: rotate(416.545587deg)
      }

      100% {
        transform: rotate(56.545587deg)
      }
    }
    ]]>
  </style>
  <path d="M3.368028,12.440083l4.598188-.208315.289983-3.292248L11,8.304712l2,2.007319l2.115763-1.724236l2.508409-.000001.267771,3.279418l4.800665.520787v2.924027l-.660971,2v8.668526l-17.980552.208315-.683057-13.748784Z" transform="translate(.000002 0.000009)" fill="#3d325b" fill-opacity="0.3" stroke-width="0.5" />
  <path d="M22,12v8c0,1.104569-.895431,2-2,2h-16c-1.104569,0-2-.895431-2-2v-8c-.552285,0-1-.447715-1-1v-3c0-1.104569.895431-2,2-2h3.17c-.113017-.321268-.170505-.659434-.17-1C6,3.343146,7.343146,2,9,2c1,0,1.88.5,2.43,1.24v-.01L12,4l.57-.77v.01C13.12,2.5,14,2,15,2c1.656854,0,3,1.343146,3,3c.000505.340566-.056983.678732-.17,1L21,6c1.104569,0,2,.895431,2,2v3c0,.552285-.447715,1-1,1M4,20h7v-8h-7v8Zm16,0v-8h-7v8h7ZM9,4c-.552285,0-1,.447715-1,1s.447715,1,1,1s1-.447715,1-1-.447715-1-1-1m6,0c-.552285,0-1,.447715-1,1s.447715,1,1,1s1-.447715,1-1-.447715-1-1-1M3,8v2h8v-2h-8ZM13,8v2h8v-2h-8Z" transform="translate(1 5.312033)" fill="#3d325b" />
  <g id="eAvKaCQNDnu4_to" transform="translate(3.495715,7.631594)">
    <g id="eAvKaCQNDnu4_tr" transform="rotate(128.333335)">
      <polygon points="0,-2.854846 0.839018,-1.15481 2.71512,-0.882196 1.35756,0.441098 1.678036,2.309619 0,1.427423 -1.678036,2.309619 -1.35756,0.441098 -2.71512,-0.882196 -0.839018,-1.15481 0,-2.854846" transform="translate(0,0)" fill="#3d325b" opacity="0.3" stroke-width="0" />
    </g>
  </g>
  <g id="eAvKaCQNDnu5_to" transform="translate(9.164248,5.114281)">
    <g id="eAvKaCQNDnu5_tr" transform="rotate(445.030286)">
      <polygon points="0,-1.202332 0.353357,-0.486354 1.143486,-0.371541 0.571743,0.185771 0.706713,0.972707 0,0.601166 -0.706713,0.972707 -0.571743,0.185771 -1.143486,-0.371541 -0.353357,-0.486354 0,-1.202332" transform="translate(0.008581,0.016126)" fill="#3d325b" opacity="0.3" stroke-width="0" />
    </g>
  </g>
  <g id="eAvKaCQNDnu6_to" transform="translate(16.573655,2.882403)">
    <g id="eAvKaCQNDnu6_tr" transform="rotate(81.131948)">
      <polygon points="0,-4.005871 1.177296,-1.620409 3.80981,-1.237882 1.904905,0.618941 2.354592,3.240818 0,2.002936 -2.354592,3.240818 -1.904905,0.618941 -3.80981,-1.237882 -1.177296,-1.620409 0,-4.005871" transform="scale(0.710454,0.736684) translate(0,0)" fill="#3d325b" opacity="0.3" stroke-width="0" />
    </g>
  </g>
  <g id="eAvKaCQNDnu7_to" transform="translate(22.337011,7.041937)">
    <g id="eAvKaCQNDnu7_tr" transform="rotate(416.545587)">
      <polygon points="0,-2.026482 0.595568,-0.819729 1.927299,-0.626217 0.963649,0.313109 1.191136,1.639458 0,1.013241 -1.191136,1.639458 -0.963649,0.313109 -1.927299,-0.626217 -0.595568,-0.819729 0,-2.026482" transform="translate(0,0)" fill="#3d325b" opacity="0.3" stroke-width="0" />
    </g>
  </g>
</svg>