<svg xmlns="http://www.w3.org/2000/svg" width="24" height="24" viewBox="0 0 24 24">
	<defs>
		<mask id="SVGyYVG7bOW">
			<g stroke-linecap="round" stroke-linejoin="round">
				<g stroke="#fff" stroke-width="2">
					<path fill="#fff" fill-opacity="0" stroke-dasharray="62" d="M12 7h8c0.55 0 1 0.45 1 1v10c0 0.55 -0.45 1 -1 1h-16c-0.55 0 -1 -0.45 -1 -1v-11Z">
						<animate fill="freeze" attributeName="stroke-dashoffset" dur="0.84s" values="62;0" />
						<animate fill="freeze" attributeName="fill-opacity" begin="1.96s" dur="0.21s" to="0.3" />
					</path>
					<path fill="none" d="M12 7h-9v-1c0 -0.55 0.45 -1 1 -1h6Z" opacity="0">
						<set fill="freeze" attributeName="opacity" begin="0.84s" to="1" />
						<animate fill="freeze" attributeName="d" begin="0.84s" dur="0.28s" values="M12 7h-9v0c0 0 0.45 0 1 0h6Z;M12 7h-9v-1c0 -0.55 0.45 -1 1 -1h6Z" />
					</path>
				</g>
				<path stroke="#000" stroke-width="6" d="M21 14h-2v6.5h2ZM19 20.5c0 0.83 -0.67 1.5 -1.5 1.5c-0.83 0 -1.5 -0.67 -1.5 -1.5c0 -0.83 0.67 -1.5 1.5 -1.5c0.83 0 1.5 0.67 1.5 1.5Z" opacity="0">
					<set fill="freeze" attributeName="opacity" begin="1.12s" to="1" />
				</path>
			</g>
		</mask>
	</defs>
	<path fill="#e2e2e2" d="M0 0h24v24H0z" mask="url(#SVGyYVG7bOW)" />
	<g stroke="#e2e2e2" stroke-dasharray="12" stroke-dashoffset="12" stroke-linecap="round" stroke-linejoin="round" stroke-width="2">
		<path fill="none" d="M21 14h-2v6.5">
			<animate fill="freeze" attributeName="stroke-dashoffset" begin="1.12s" dur="0.28s" to="0" />
		</path>
		<path fill="#e2e2e2" fill-opacity="0" d="M19 20.5c0 0.83 -0.67 1.5 -1.5 1.5c-0.83 0 -1.5 -0.67 -1.5 -1.5c0 -0.83 0.67 -1.5 1.5 -1.5c0.83 0 1.5 0.67 1.5 1.5Z">
			<animate fill="freeze" attributeName="stroke-dashoffset" begin="1.4s" dur="0.28s" to="0" />
			<animate fill="freeze" attributeName="fill-opacity" begin="1.68s" dur="0.28s" to="1" />
		</path>
	</g>
</svg>