<svg xmlns="http://www.w3.org/2000/svg" width="16" height="16" viewBox="0 0 16 16">
	<path fill="#e2e2e2" d="M7 3a1 1 0 1 1-2 0a1 1 0 0 1 2 0m1 3a1 1 0 1 0 0-2a1 1 0 0 0 0 2m3-3a1 1 0 1 1-2 0a1 1 0 0 1 2 0m-5 7a1 1 0 0 0-1 1v1a1 1 0 0 0 1 1h4a1 1 0 0 0 1-1v-1a1 1 0 0 0-1-1z" />
	<path fill="#e2e2e2" fill-rule="evenodd" d="M13 7v6c0 1.66-1.34 3-3 3H6c-1.66 0-3-1.34-3-3V7a1 1 0 0 1-1-1V5a1 1 0 0 1 1-1V3c0-1.66 1.34-3 3-3h4c1.66 0 3 1.34 3 3v1a1 1 0 0 1 1 1v1a1 1 0 0 1-1 1M6 1h4c1.1 0 2 .895 2 2v4H4V3c0-1.1.895-2 2-2M4 8v5c0 1.1.895 2 2 2h4c1.1 0 2-.895 2-2V8z" clip-rule="evenodd" />
</svg>